<svg width="150" height="133" viewBox="0 0 150 133" fill="none" xmlns="http://www.w3.org/2000/svg">
<g filter="url(#filter0_d_738_3677)">
<path fill-rule="evenodd" clip-rule="evenodd" d="M80.25 10.8333V46.7499L80.25 46.8043C80.2499 47.2284 80.2498 47.6405 80.2955 47.9804C80.347 48.3636 80.4726 48.8009 80.8358 49.1641C81.199 49.5273 81.6363 49.6529 82.0195 49.7044C82.3594 49.7501 82.7715 49.75 83.1956 49.7499L83.25 49.7499H125V86.6666C125 101.987 125 109.648 119.508 114.407C114.017 119.167 105.178 119.167 87.5 119.167H62.5C44.8223 119.167 35.9835 119.167 30.4917 114.407C25 109.648 25 101.987 25 86.6666V43.3333C25 28.0126 25 20.3523 30.4917 15.5928C35.9835 10.8333 44.8223 10.8333 62.5 10.8333H80.25ZM82.25 10.8333V46.7499C82.25 47.2496 82.2521 47.5238 82.2777 47.7139L82.2787 47.7212L82.286 47.7222C82.4762 47.7478 82.7503 47.7499 83.25 47.7499H125V46.8912C125 42.4631 125 40.249 124.048 38.2582C123.097 36.2673 121.291 34.7018 117.678 31.5706L117.678 31.5706L101.072 17.1793C97.4594 14.0481 95.653 12.4825 93.3559 11.6579C91.0587 10.8333 88.504 10.8333 83.3947 10.8333H82.25ZM55.25 70.4166C55.25 69.8643 55.6977 69.4166 56.25 69.4166H93.75C94.3023 69.4166 94.75 69.8643 94.75 70.4166C94.75 70.9689 94.3023 71.4166 93.75 71.4166H56.25C55.6977 71.4166 55.25 70.9689 55.25 70.4166ZM56.25 91.0833C55.6977 91.0833 55.25 91.531 55.25 92.0833C55.25 92.6355 55.6977 93.0833 56.25 93.0833H81.25C81.8023 93.0833 82.25 92.6355 82.25 92.0833C82.25 91.531 81.8023 91.0833 81.25 91.0833H56.25Z" fill="#CCCCCC"/>
</g>
<defs>
<filter id="filter0_d_738_3677" x="-3" y="-3" width="166" height="146" filterUnits="userSpaceOnUse" color-interpolation-filters="sRGB">
<feFlood flood-opacity="0" result="BackgroundImageFix"/>
<feColorMatrix in="SourceAlpha" type="matrix" values="0 0 0 0 0 0 0 0 0 0 0 0 0 0 0 0 0 0 127 0" result="hardAlpha"/>
<feOffset dx="5" dy="5"/>
<feGaussianBlur stdDeviation="4"/>
<feComposite in2="hardAlpha" operator="out"/>
<feColorMatrix type="matrix" values="0 0 0 0 0 0 0 0 0 0 0 0 0 0 0 0 0 0 0.25 0"/>
<feBlend mode="normal" in2="BackgroundImageFix" result="effect1_dropShadow_738_3677"/>
<feBlend mode="normal" in="SourceGraphic" in2="effect1_dropShadow_738_3677" result="shape"/>
</filter>
</defs>
</svg>
