<svg width="200" height="200" viewBox="0 0 200 200" fill="none" xmlns="http://www.w3.org/2000/svg">
<g filter="url(#filter0_d_738_3659)">
<path fill-rule="evenodd" clip-rule="evenodd" d="M107.333 16.6667V73.0001L107.333 73.0545C107.333 73.4786 107.333 73.8907 107.379 74.2306C107.43 74.6138 107.556 75.0511 107.919 75.4143C108.282 75.7775 108.72 75.903 109.103 75.9545C109.443 76.0002 109.855 76.0002 110.279 76.0001H110.279H110.279H110.279H110.333H166.667V133.333C166.667 156.904 166.667 168.689 159.344 176.011C152.022 183.333 140.237 183.333 116.667 183.333H83.3333C59.763 183.333 47.9779 183.333 40.6556 176.011C33.3333 168.689 33.3333 156.904 33.3333 133.333V66.6667C33.3333 43.0965 33.3333 31.3114 40.6556 23.9891C47.9779 16.6667 59.763 16.6667 83.3333 16.6667H107.333ZM109.333 16.6667V73.0001C109.333 73.4998 109.335 73.7739 109.361 73.9641L109.362 73.9714L109.369 73.9724C109.559 73.998 109.834 74.0001 110.333 74.0001H166.667V72.1405C166.667 65.328 166.667 61.9218 165.398 58.8589C164.129 55.7961 161.721 53.3875 156.903 48.5703L134.763 26.4299C129.946 21.6127 127.537 19.2041 124.474 17.9354C121.412 16.6667 118.005 16.6667 111.193 16.6667H109.333ZM73.9999 108.333C73.9999 107.781 74.4476 107.333 74.9999 107.333H125C125.552 107.333 126 107.781 126 108.333C126 108.886 125.552 109.333 125 109.333H74.9999C74.4476 109.333 73.9999 108.886 73.9999 108.333ZM74.9999 140.667C74.4476 140.667 73.9999 141.114 73.9999 141.667C73.9999 142.219 74.4476 142.667 74.9999 142.667H108.333C108.886 142.667 109.333 142.219 109.333 141.667C109.333 141.114 108.886 140.667 108.333 140.667H74.9999Z" fill="#CCCCCC"/>
</g>
<defs>
<filter id="filter0_d_738_3659" x="-3" y="-3" width="216" height="216" filterUnits="userSpaceOnUse" color-interpolation-filters="sRGB">
<feFlood flood-opacity="0" result="BackgroundImageFix"/>
<feColorMatrix in="SourceAlpha" type="matrix" values="0 0 0 0 0 0 0 0 0 0 0 0 0 0 0 0 0 0 127 0" result="hardAlpha"/>
<feOffset dx="5" dy="5"/>
<feGaussianBlur stdDeviation="4"/>
<feComposite in2="hardAlpha" operator="out"/>
<feColorMatrix type="matrix" values="0 0 0 0 0 0 0 0 0 0 0 0 0 0 0 0 0 0 0.25 0"/>
<feBlend mode="normal" in2="BackgroundImageFix" result="effect1_dropShadow_738_3659"/>
<feBlend mode="normal" in="SourceGraphic" in2="effect1_dropShadow_738_3659" result="shape"/>
</filter>
</defs>
</svg>
