<svg width="200" height="200" viewBox="0 0 200 200" fill="none" xmlns="http://www.w3.org/2000/svg">
<g filter="url(#filter0_d_30_1642)">
<path d="M33.3334 45.6667C33.3334 43.7811 33.3334 42.8383 33.9192 42.2525C34.5049 41.6667 35.4478 41.6667 37.3334 41.6667H81.6765C82.494 41.6667 82.9028 41.6667 83.2703 41.8189C83.6379 41.9712 83.9269 42.2602 84.505 42.8383L107.162 65.4951C107.74 66.0732 108.029 66.3622 108.396 66.5144C108.764 66.6667 109.173 66.6667 109.99 66.6667H162.667C164.552 66.6667 165.495 66.6667 166.081 67.2525C166.667 67.8383 166.667 68.7811 166.667 70.6667V154.333C166.667 156.219 166.667 157.162 166.081 157.748C165.495 158.333 164.552 158.333 162.667 158.333H37.3334C35.4478 158.333 34.5049 158.333 33.9192 157.748C33.3334 157.162 33.3334 156.219 33.3334 154.333V45.6667Z" fill="#D4D4D4" stroke="#CCCCCC" stroke-width="2"/>
</g>
<defs>
<filter id="filter0_d_30_1642" x="-3" y="-3" width="216" height="216" filterUnits="userSpaceOnUse" color-interpolation-filters="sRGB">
<feFlood flood-opacity="0" result="BackgroundImageFix"/>
<feColorMatrix in="SourceAlpha" type="matrix" values="0 0 0 0 0 0 0 0 0 0 0 0 0 0 0 0 0 0 127 0" result="hardAlpha"/>
<feOffset dx="5" dy="5"/>
<feGaussianBlur stdDeviation="4"/>
<feComposite in2="hardAlpha" operator="out"/>
<feColorMatrix type="matrix" values="0 0 0 0 0 0 0 0 0 0 0 0 0 0 0 0 0 0 0.25 0"/>
<feBlend mode="normal" in2="BackgroundImageFix" result="effect1_dropShadow_30_1642"/>
<feBlend mode="normal" in="SourceGraphic" in2="effect1_dropShadow_30_1642" result="shape"/>
</filter>
</defs>
</svg>
