<svg width="87" height="87" viewBox="0 0 87 87" fill="none" xmlns="http://www.w3.org/2000/svg">
<g filter="url(#filter0_d_746_3643)">
<path fill-rule="evenodd" clip-rule="evenodd" d="M7.8382 7.83827C6.66663 9.00984 6.66663 10.8955 6.66663 14.6667V65.3334C6.66663 69.1046 6.66663 70.9902 7.8382 72.1618C9.00977 73.3334 10.8954 73.3334 14.6666 73.3334H65.3333C69.1045 73.3334 70.9901 73.3334 72.1617 72.1618C73.3333 70.9902 73.3333 69.1046 73.3333 65.3334V14.6667C73.3333 10.8955 73.3333 9.00984 72.1617 7.83827C72.0096 7.68613 71.8454 7.55375 71.6666 7.43856V56.6667H69.9803C68.3453 56.6667 67.5278 56.6667 66.7927 56.3622C66.0577 56.0577 65.4796 55.4797 64.3235 54.3236L64.3235 54.3235L56.1617 46.1618C54.8284 44.8285 54.1617 44.1618 53.3333 44.1618C52.5049 44.1618 51.8382 44.8285 50.5049 46.1618L42.0888 54.5779C41.1424 55.5243 40.6692 55.9975 40.1482 55.8971C39.6271 55.7968 39.3635 55.1817 38.8363 53.9515L32.3273 38.7638C31.2728 36.3034 30.7456 35.0732 29.7035 34.8725C28.6615 34.6718 27.7151 35.6182 25.8223 37.511L11.6666 51.6667V6.70166C9.79433 6.77942 8.64637 7.0301 7.8382 7.83827Z" fill="#CCCCCC"/>
<path d="M14.6666 9.1665H65.3333C67.2896 9.1665 68.5053 9.17181 69.3893 9.29066C70.1871 9.39792 70.3447 9.55632 70.3916 9.60343L70.394 9.60584L70.3964 9.60825C70.4435 9.65512 70.6019 9.81271 70.7091 10.6105C70.828 11.4945 70.8333 12.7102 70.8333 14.6665V65.3332C70.8333 67.2895 70.828 68.5052 70.7091 69.3891C70.6019 70.187 70.4435 70.3446 70.3964 70.3914L70.394 70.3938L70.3916 70.3962C70.3447 70.4434 70.1871 70.6018 69.3893 70.709C68.5053 70.8279 67.2896 70.8332 65.3333 70.8332H14.6666C12.7103 70.8332 11.4946 70.8279 10.6107 70.709C9.81283 70.6018 9.65524 70.4434 9.60837 70.3962L9.60597 70.3938L9.60356 70.3914C9.55645 70.3446 9.39805 70.187 9.29078 69.3891C9.17194 68.5052 9.16663 67.2895 9.16663 65.3332V14.6665C9.16663 12.7102 9.17194 11.4945 9.29078 10.6105C9.39804 9.81271 9.55644 9.65512 9.60356 9.60825C9.60439 9.60741 9.6052 9.60661 9.60597 9.60584C9.60673 9.60508 9.60753 9.60427 9.60837 9.60343C9.65524 9.55632 9.81283 9.39792 10.6107 9.29066C11.4946 9.17181 12.7103 9.1665 14.6666 9.1665Z" stroke="#CCCCCC" stroke-width="5"/>
<ellipse cx="50" cy="30.0002" rx="6.66667" ry="6.66667" fill="#CCCCCC"/>
</g>
<defs>
<filter id="filter0_d_746_3643" x="-3" y="-3" width="96" height="96" filterUnits="userSpaceOnUse" color-interpolation-filters="sRGB">
<feFlood flood-opacity="0" result="BackgroundImageFix"/>
<feColorMatrix in="SourceAlpha" type="matrix" values="0 0 0 0 0 0 0 0 0 0 0 0 0 0 0 0 0 0 127 0" result="hardAlpha"/>
<feOffset dx="5" dy="5"/>
<feGaussianBlur stdDeviation="4"/>
<feComposite in2="hardAlpha" operator="out"/>
<feColorMatrix type="matrix" values="0 0 0 0 0 0 0 0 0 0 0 0 0 0 0 0 0 0 0.25 0"/>
<feBlend mode="normal" in2="BackgroundImageFix" result="effect1_dropShadow_746_3643"/>
<feBlend mode="normal" in="SourceGraphic" in2="effect1_dropShadow_746_3643" result="shape"/>
</filter>
</defs>
</svg>
